<svg width="368" height="330" viewBox="0 0 368 330" fill="none" xmlns="http://www.w3.org/2000/svg">
<path d="M198.806 322.653L198.728 322.626H198.645C144.511 322.626 77.6349 294.161 37.0384 261.051C16.7253 244.483 3.10202 226.841 0.83514 211.113C-0.294283 203.277 1.39303 195.909 6.49605 189.345C11.61 182.767 20.182 176.962 32.8807 172.333C74.4082 157.195 100.33 140.884 117.331 124.403C134.339 107.914 142.39 91.282 148.215 75.5618C149.671 71.6344 150.988 67.7633 152.269 63.9693C152.376 63.6551 152.481 63.3414 152.587 63.0283C153.759 59.5585 154.908 56.1557 156.117 52.8261C158.753 45.5669 161.667 38.6787 165.694 32.2704C173.725 19.4914 186.22 8.55915 209.908 0.500225C264.079 0.511959 303.32 12.0588 329.029 37.0423C354.748 62.0355 367.023 100.574 367.023 154.794C367.023 208.981 349.35 259.271 319.49 291.84C289.65 324.387 247.634 339.255 198.806 322.653Z" stroke="white"/>
</svg>
