<svg width="422" height="379" viewBox="0 0 422 379" fill="none" xmlns="http://www.w3.org/2000/svg">
<path d="M228.251 370.548L228.173 370.521H228.09C165.912 370.521 89.1064 337.829 42.4822 299.802C19.1552 280.777 3.49345 260.504 0.886415 242.416C-0.413078 233.4 1.5287 224.92 7.4011 217.366C13.2844 209.799 23.1408 203.127 37.7294 197.809C85.4061 180.429 115.16 161.705 134.672 142.79C154.19 123.868 163.429 104.781 170.116 86.7366C171.787 82.2283 173.299 77.7843 174.771 73.4279C174.892 73.0677 175.014 72.7082 175.135 72.3493C176.48 68.3646 177.8 64.4559 179.189 60.6314C182.216 52.2941 185.564 44.3794 190.192 37.0148C199.425 22.3233 213.79 9.75956 241.01 0.501108C303.225 0.512861 348.31 13.7726 377.851 42.4804C407.402 71.1979 421.499 115.472 421.499 177.739C421.499 239.972 401.202 297.735 366.901 335.148C332.62 372.539 284.346 389.621 228.251 370.548Z" stroke="black"/>
<path d="M224.965 337.262L224.886 337.235H224.804C174 337.235 111.234 310.547 73.1328 279.502C54.0674 263.967 41.2884 247.43 39.1625 232.695C38.1036 225.355 39.6854 218.455 44.4696 212.307C49.2648 206.145 57.3048 200.704 69.2211 196.365C108.203 182.169 132.539 166.872 148.501 151.412C164.469 135.946 172.028 120.345 177.498 105.601C178.864 101.918 180.1 98.2876 181.303 94.7298C181.403 94.4356 181.502 94.1419 181.601 93.8487C182.701 90.5944 183.779 87.4035 184.914 84.2813C187.388 77.475 190.123 71.0183 193.901 65.0119C201.434 53.0367 213.155 42.79 235.38 35.2351C286.221 35.2468 323.044 46.0739 347.165 69.4925C371.297 92.9206 382.818 129.049 382.818 179.888C382.818 230.694 366.232 277.843 338.21 308.377C310.209 338.889 270.784 352.826 224.965 337.262Z" stroke="black"/>
</svg>
