<svg width="27" height="27" viewBox="0 0 27 27" fill="none" xmlns="http://www.w3.org/2000/svg">
<g clip-path="url(#clip0_601_59)">
<path fill-rule="evenodd" clip-rule="evenodd" d="M10.6949 5.32084C10.6226 4.89173 10.5681 4.46749 10.5329 4.0432C10.4799 3.40677 10.5127 2.76548 10.4939 2.12905C10.4857 1.85905 10.4534 1.15513 10.4664 1.05388C10.5845 0.171556 11.2967 0.0365395 11.5049 0.0124323C11.6057 -0.00203196 12.6404 -0.117695 12.8636 1.02981C13.1375 2.43284 13.2252 3.84551 13.1283 5.22926C13.3544 6.40569 13.7411 7.57727 14.2517 8.63799C16.2835 12.8567 20.1551 13.2666 24.3497 13.228C24.9948 13.2184 25.5305 13.7246 25.5643 14.3659C25.598 15.0119 25.1178 15.5712 24.4756 15.6291C22.1309 15.8557 17.971 17.7361 16.5327 19.6936C16.2319 20.1034 16.0569 21.0918 15.8254 22.0609C15.5024 23.4061 15.1181 24.7368 14.6876 25.2961C14.623 25.3829 13.8376 26.27 13.6032 26.4002C13.0401 26.7088 12.5893 26.5303 12.3333 26.3664C12.0773 26.2025 11.7875 25.8794 11.6718 25.3443C11.5508 24.785 11.653 23.6375 11.6342 23.3916C11.5657 22.4996 11.3873 20.7494 11.0233 19.2451C10.8271 18.4351 10.6178 17.6878 10.2716 17.3166C8.99009 15.9425 6.94098 16.145 5.21539 16.3716C5.01723 16.3957 4.81907 16.4246 4.62139 16.4487C3.91891 16.6561 3.17302 16.8103 2.38471 16.9019C1.1943 17.0418 0.998562 15.9473 0.987955 15.875C0.965776 15.7159 0.883321 14.8962 1.78059 14.5684C1.87847 14.5346 2.60072 14.3755 2.87892 14.3128C3.26656 14.226 3.65854 14.1586 4.05197 14.0959C8.11596 12.8327 10.3232 9.28406 10.6949 5.32084ZM12.0898 9.70356C13.624 12.8761 15.9522 14.4093 18.712 15.1035H18.7116C16.9884 16.0052 15.4209 17.1334 14.5902 18.2664C14.2749 18.6955 13.9856 19.5586 13.7247 20.5277C13.5835 19.6261 13.3926 18.6666 13.1404 17.8469C12.8535 16.9116 12.4673 16.1354 12.0363 15.6725C11.2041 14.7805 10.1598 14.2839 9.03684 14.038C10.3811 12.8471 11.4003 11.3621 12.0898 9.70356Z" fill="white"/>
</g>
<defs>
<clipPath id="clip0_601_59">
<rect width="26.1138" height="26.1138" fill="white" transform="scale(1.03394)"/>
</clipPath>
</defs>
</svg>
