<svg width="301" height="270" viewBox="0 0 301 270" fill="none" xmlns="http://www.w3.org/2000/svg">
<path d="M162.848 263.901L162.77 263.875H162.687C118.377 263.875 63.6264 240.596 30.3914 213.516C13.759 199.963 2.62581 185.548 0.774493 172.716C-0.147127 166.328 1.22923 160.325 5.39222 154.975C9.56617 149.612 16.5693 144.87 26.9599 141.086C60.9781 128.698 82.2202 115.347 96.1555 101.85C110.098 88.3468 116.697 74.725 121.472 61.8554C122.664 58.6407 123.743 55.4723 124.793 52.3681C124.88 52.1111 124.966 51.8547 125.053 51.5986C126.012 48.7593 126.953 45.9761 127.943 43.2529C130.101 37.316 132.485 31.6872 135.778 26.4521C142.34 16.0195 152.552 7.08864 171.926 0.501154C216.273 0.512888 248.378 9.9586 269.405 30.3734C290.443 50.7977 300.494 82.2996 300.494 126.65C300.494 170.966 286.026 212.089 261.589 238.716C237.173 265.321 202.8 277.472 162.848 263.901Z" stroke="white"/>
</svg>
