<svg width="46" height="40" viewBox="0 0 46 40" fill="none" xmlns="http://www.w3.org/2000/svg">
<path fill-rule="evenodd" clip-rule="evenodd" d="M27.6642 16.5016C27.6537 15.7326 27.5533 14.9569 27.3526 14.176C26.6488 11.4353 23.5085 9.67587 20.1662 9.26219C16.8252 8.84851 13.3508 9.78989 12.0118 12.1739C11.2459 13.5369 11.1403 14.7116 11.4532 15.7021C11.7649 16.6872 12.5043 17.504 13.5079 18.1404C16.3062 19.9131 21.2068 20.2751 23.4425 19.5339C24.4765 19.1905 25.4867 18.7769 26.4705 18.3035C25.9079 21.4022 23.8122 24.3377 21.0153 26.9829C14.9368 32.732 5.50413 37.0955 0.367194 38.6998C0.0911995 38.786 -0.061997 39.0803 0.0238386 39.3575C0.109674 39.6346 0.402831 39.7897 0.678825 39.7035C5.91744 38.0674 15.5337 33.611 21.7324 27.7479C24.9347 24.7195 27.2166 21.3107 27.6061 17.7267C34.8454 13.8432 40.7905 6.79737 45.8733 0.867943C46.0621 0.649169 46.0371 0.316357 45.8178 0.126753C45.5986 -0.0615247 45.2685 -0.0376689 45.0796 0.18243C40.2042 5.86921 34.5456 12.634 27.6642 16.5016ZM26.6118 17.0651C26.6514 16.2006 26.5669 15.3229 26.3384 14.4372C25.7296 12.0651 22.9314 10.6624 20.0381 10.3044C18.2646 10.0856 16.4409 10.2659 15.0108 10.9077C14.1115 11.3107 13.3706 11.8954 12.9243 12.691C12.3379 13.7345 12.2112 14.6268 12.4515 15.3839C12.6918 16.1463 13.2888 16.7588 14.0666 17.2507C16.6166 18.867 21.0787 19.2104 23.1136 18.5356C24.314 18.1378 25.4788 17.6419 26.6118 17.0651Z" fill="white"/>
</svg>
