<svg width="45" height="46" viewBox="0 0 45 46" fill="none" xmlns="http://www.w3.org/2000/svg">
<path fill-rule="evenodd" clip-rule="evenodd" d="M10.8437 34.4492C8.41794 32.3182 5.67438 30.5096 3.00272 28.7763C2.42629 28.405 1.65409 28.5513 1.32403 29.1233C0.949978 29.6746 1.12597 30.4288 1.65863 30.7789C4.24922 32.4566 6.91539 34.2006 9.22381 36.2391C9.71441 36.6764 10.4891 36.6376 10.9421 36.1464C11.3949 35.6556 11.334 34.8869 10.8437 34.4492Z" fill="white"/>
<path fill-rule="evenodd" clip-rule="evenodd" d="M24.6648 27.5087C22.3557 20.7752 19.1944 14.3536 17.0319 7.54008C16.8488 6.91289 16.1597 6.5514 15.5251 6.74807C14.8902 6.94518 14.5151 7.61088 14.7419 8.25921C16.8979 15.0861 20.0529 21.5207 22.3555 28.2677C22.5874 28.9056 23.2847 29.2497 23.925 29.0413C24.5213 28.8122 24.8966 28.1466 24.6648 27.5087Z" fill="white"/>
<path fill-rule="evenodd" clip-rule="evenodd" d="M41.5743 14.0588C40.4466 16.7305 39.3187 19.402 38.1908 22.0741C37.9024 22.6716 38.2053 23.3866 38.8322 23.6533C39.4593 23.9197 40.1422 23.6223 40.4308 23.0244C41.5606 20.3484 42.6904 17.673 43.82 14.9974C44.0646 14.3789 43.7604 13.667 43.1319 13.4037C42.5471 13.1615 41.8187 13.4407 41.5743 14.0588Z" fill="white"/>
</svg>
