<svg width="43" height="39" viewBox="0 0 43 39" fill="none" xmlns="http://www.w3.org/2000/svg">
<path fill-rule="evenodd" clip-rule="evenodd" d="M2.87258 13.0487C3.92424 9.32481 4.45475 5.42602 4.94076 1.64395C5.04265 0.829345 4.47408 0.0730433 3.67304 0.0148575C2.87141 -0.101514 2.13829 0.480685 2.03641 1.2371C1.56855 4.9028 1.0679 8.68454 0.0554726 12.2339C-0.164111 12.9903 0.287932 13.8052 1.06555 14.038C1.84258 14.2707 2.65241 13.8051 2.87258 13.0487Z" fill="white"/>
<path fill-rule="evenodd" clip-rule="evenodd" d="M17.7825 24.3362C23.9373 18.3431 29.2998 11.5935 35.6198 5.71678C36.21 5.19311 36.2416 4.26214 35.6906 3.68028C35.139 3.09842 34.2115 3.04046 33.6213 3.62232C27.2832 9.49909 21.9031 16.2486 15.7302 22.2418C15.154 22.8236 15.1458 23.7544 15.7126 24.3362C16.2788 24.8599 17.2063 24.9181 17.7825 24.3362Z" fill="white"/>
<path fill-rule="evenodd" clip-rule="evenodd" d="M41.4561 35.5672C37.9334 35.7418 34.4107 35.916 30.8874 36.0905C30.0805 36.0905 29.4574 36.7891 29.4967 37.6037C29.5365 38.4183 30.2233 38.9998 31.0308 38.9998C34.5594 38.8253 38.0874 38.651 41.6153 38.4765C42.4222 38.4183 43.0412 37.72 42.9973 36.9054C42.9533 36.1489 42.2624 35.509 41.4561 35.5672Z" fill="white"/>
</svg>
